<svg xmlns="http://www.w3.org/2000/svg" viewBox="0 0 96 96" role="img" aria-labelledby="title desc">
  <title id="title">Comprex99 mark</title>
  <desc id="desc">A minimal geometric character mark for Comprex99.</desc>
  <rect width="96" height="96" rx="22" fill="#111315"/>
  <path fill="#f7f4ed" d="M23 34c0-10 8-18 18-18h25c13 0 23 10 23 23v16c0 13-10 23-23 23H42c-11 0-19-8-19-19V34Z"/>
  <path fill="#111315" d="M39 30h34v8H39z"/>
  <path fill="#111315" d="M55 38h18v28H55z"/>
  <circle cx="37" cy="34" r="6" fill="#111315"/>
  <path fill="#111315" d="M30 47c8 9 20 9 28 0v16H30V47Z"/>
  <path fill="#111315" d="M56 58c6 0 11 5 11 11v9H48v-9c0-6 3-11 8-11Z"/>
  <path fill="#111315" d="M38 73h17l-8 15H28l10-15Z"/>
  <path fill="#111315" d="M66 73h17l-8 15H56l10-15Z"/>
  <path fill="#f7f4ed" d="M73 35c10 16 13 26 9 32-2 4-6 6-13 7 5-9 5-22 4-39Z"/>
</svg>
